<svg id="visual" viewBox="0 0 960 540" width="960" height="540" xmlns="http://www.w3.org/2000/svg" xmlns:xlink="http://www.w3.org/1999/xlink" version="1.1"><rect x="0" y="0" width="960" height="540" fill="#fd9148"></rect><defs><linearGradient id="grad1_0" x1="43.8%" y1="100%" x2="100%" y2="0%"><stop offset="14.444444444444446%" stop-color="#000f8e" stop-opacity="1"></stop><stop offset="85.55555555555554%" stop-color="#000f8e" stop-opacity="1"></stop></linearGradient></defs><defs><linearGradient id="grad1_1" x1="43.8%" y1="100%" x2="100%" y2="0%"><stop offset="14.444444444444446%" stop-color="#000f8e" stop-opacity="1"></stop><stop offset="85.55555555555554%" stop-color="#a70079" stop-opacity="1"></stop></linearGradient></defs><defs><linearGradient id="grad1_2" x1="43.8%" y1="100%" x2="100%" y2="0%"><stop offset="14.444444444444446%" stop-color="#e73b59" stop-opacity="1"></stop><stop offset="85.55555555555554%" stop-color="#a70079" stop-opacity="1"></stop></linearGradient></defs><defs><linearGradient id="grad1_3" x1="43.8%" y1="100%" x2="100%" y2="0%"><stop offset="14.444444444444446%" stop-color="#e73b59" stop-opacity="1"></stop><stop offset="85.55555555555554%" stop-color="#fd9148" stop-opacity="1"></stop></linearGradient></defs><defs><linearGradient id="grad2_0" x1="0%" y1="100%" x2="56.3%" y2="0%"><stop offset="14.444444444444446%" stop-color="#000f8e" stop-opacity="1"></stop><stop offset="85.55555555555554%" stop-color="#000f8e" stop-opacity="1"></stop></linearGradient></defs><defs><linearGradient id="grad2_1" x1="0%" y1="100%" x2="56.3%" y2="0%"><stop offset="14.444444444444446%" stop-color="#a70079" stop-opacity="1"></stop><stop offset="85.55555555555554%" stop-color="#000f8e" stop-opacity="1"></stop></linearGradient></defs><defs><linearGradient id="grad2_2" x1="0%" y1="100%" x2="56.3%" y2="0%"><stop offset="14.444444444444446%" stop-color="#a70079" stop-opacity="1"></stop><stop offset="85.55555555555554%" stop-color="#e73b59" stop-opacity="1"></stop></linearGradient></defs><defs><linearGradient id="grad2_3" x1="0%" y1="100%" x2="56.3%" y2="0%"><stop offset="14.444444444444446%" stop-color="#fd9148" stop-opacity="1"></stop><stop offset="85.55555555555554%" stop-color="#e73b59" stop-opacity="1"></stop></linearGradient></defs><g transform="translate(960, 540)"><path d="M-324 0C-312.9 -35.3 -301.8 -70.7 -276.8 -89.9C-251.8 -109.2 -212.9 -112.3 -202.3 -146.9C-191.7 -181.6 -209.4 -247.8 -190.4 -262.1C-171.5 -276.5 -116 -238.9 -78.2 -240.6C-40.3 -242.3 -20.2 -283.1 0 -324L0 0Z" fill="#f6684d"></path><path d="M-243 0C-234.7 -26.5 -226.3 -53 -207.6 -67.4C-188.8 -81.9 -159.6 -84.2 -151.7 -110.2C-143.7 -136.2 -157 -185.8 -142.8 -196.6C-128.7 -207.3 -87 -179.2 -58.6 -180.5C-30.3 -181.7 -15.1 -212.4 0 -243L0 0Z" fill="#cd0068"></path><path d="M-162 0C-156.4 -17.7 -150.9 -35.3 -138.4 -45C-125.9 -54.6 -106.4 -56.1 -101.1 -73.5C-95.8 -90.8 -104.7 -123.9 -95.2 -131.1C-85.8 -138.2 -58 -119.5 -39.1 -120.3C-20.2 -121.1 -10.1 -141.6 0 -162L0 0Z" fill="#720086"></path><path d="M-81 0C-78.2 -8.8 -75.4 -17.7 -69.2 -22.5C-62.9 -27.3 -53.2 -28.1 -50.6 -36.7C-47.9 -45.4 -52.3 -61.9 -47.6 -65.5C-42.9 -69.1 -29 -59.7 -19.5 -60.2C-10.1 -60.6 -5 -70.8 0 -81L0 0Z" fill="#000f8e"></path></g><g transform="translate(0, 0)"><path d="M324 0C284.6 24.7 245.1 49.3 221.6 72C198.1 94.7 190.5 115.3 176.4 128.1C162.2 140.9 141.6 145.8 131.1 180.4C120.6 215 120.3 279.3 100.1 308.1C80 337 40 330.5 0 324L0 0Z" fill="#f6684d"></path><path d="M243 0C213.4 18.5 183.8 37 166.2 54C148.6 71 142.9 86.5 132.3 96.1C121.7 105.7 106.2 109.4 98.3 135.3C90.4 161.2 90.2 209.4 75.1 231.1C60 252.8 30 247.9 0 243L0 0Z" fill="#cd0068"></path><path d="M162 0C142.3 12.3 122.6 24.7 110.8 36C99 47.3 95.2 57.7 88.2 64.1C81.1 70.5 70.8 72.9 65.5 90.2C60.3 107.5 60.1 139.6 50.1 154.1C40 168.5 20 165.3 0 162L0 0Z" fill="#720086"></path><path d="M81 0C71.1 6.2 61.3 12.3 55.4 18C49.5 23.7 47.6 28.8 44.1 32C40.6 35.2 35.4 36.5 32.8 45.1C30.1 53.7 30.1 69.8 25 77C20 84.3 10 82.6 0 81L0 0Z" fill="#000f8e"></path></g></svg>