<svg xmlns="http://www.w3.org/2000/svg" xmlns:xlink="http://www.w3.org/1999/xlink" version="1.1" width="256" height="256" viewBox="0 0 256 256" xml:space="preserve">
<desc>Created with Fabric.js 1.7.22</desc>
<defs>
</defs>
<g transform="translate(128 128) scale(0.72 0.72)" style="">
	<g style="stroke: none; stroke-width: 0; stroke-dasharray: none; stroke-linecap: butt; stroke-linejoin: miter; stroke-miterlimit: 10; fill: none; fill-rule: nonzero; opacity: 1;" transform="translate(-175.05 -175.05000000000004) scale(3.89 3.89)" >
	<path d="M 57.708 30.185 c -3.103 0 -5.601 2.341 -8.407 6.514 c -0.174 0.259 -0.352 0.546 -0.527 0.818 c 0.999 1.483 2.042 3.126 3.142 4.958 l 1.544 2.575 c 3.728 6.211 5.849 9.406 7.091 10.913 c 1.597 1.935 2.715 2.512 4.167 2.512 c 3.684 0 4.604 -3.386 4.604 -7.26 c 0 -5.521 -1.287 -11.649 -4.123 -16.027 C 63.186 32.083 60.578 30.185 57.708 30.185 z" style="stroke: none; stroke-width: 1; stroke-dasharray: none; stroke-linecap: butt; stroke-linejoin: miter; stroke-miterlimit: 10; fill: rgb(0,0,0); fill-rule: nonzero; opacity: 1;" transform=" matrix(1 0 0 1 0 0) " stroke-linecap="round" />
	<path d="M 32.162 31.569 c -2.564 0 -4.742 1.799 -6.564 4.552 c -2.577 3.889 -4.155 9.682 -4.155 15.245 c 0 2.295 0.504 4.056 1.162 5.122 c 0.863 1.396 2.151 1.988 3.463 1.988 c 1.693 0 3.241 -0.42 6.226 -4.548 c 2.391 -3.308 5.208 -7.952 7.103 -10.863 l 2.553 -3.923 c -1.244 -1.771 -2.32 -3.134 -3.09 -3.952 C 37.316 33.55 35.33 31.569 32.162 31.569 z" style="stroke: none; stroke-width: 1; stroke-dasharray: none; stroke-linecap: butt; stroke-linejoin: miter; stroke-miterlimit: 10; fill: rgb(0,0,0); fill-rule: nonzero; opacity: 1;" transform=" matrix(1 0 0 1 0 0) " stroke-linecap="round" />
	<path d="M 0 11.851 v 66.298 C 0 84.694 5.306 90 11.851 90 h 66.298 C 84.694 90 90 84.694 90 78.149 V 11.851 C 90 5.306 84.694 0 78.149 0 H 11.851 C 5.306 0 0 5.306 0 11.851 z M 72.891 60.413 c -1.312 2.274 -3.87 4.545 -8.173 4.545 c -2.675 0 -5.045 -0.581 -7.666 -3.053 c -2.015 -1.898 -4.37 -5.269 -6.182 -8.299 l -5.39 -9.003 c -0.155 -0.259 -0.307 -0.501 -0.46 -0.753 c -0.155 0.275 -0.305 0.537 -0.463 0.818 l -1.893 3.354 c -3.804 6.744 -4.767 8.28 -6.669 10.815 c -3.333 4.439 -6.18 6.121 -9.927 6.121 c -4.445 0 -7.256 -1.925 -8.997 -4.826 c -1.421 -2.364 -2.119 -5.465 -2.119 -8.999 c 0 -6.426 1.764 -13.124 5.118 -18.297 c 2.976 -4.587 7.271 -7.795 12.196 -7.795 c 2.853 0 5.689 0.844 8.65 3.262 c 1.562 1.275 3.176 2.959 4.909 5.153 c 1.409 -1.904 2.917 -3.712 4.552 -5.138 c 2.416 -2.107 5.022 -3.277 7.645 -3.277 c 4.403 0 8.598 2.552 11.808 7.338 c 3.513 5.241 5.218 11.843 5.218 18.656 C 75.048 55.085 74.249 58.061 72.891 60.413 z" style="stroke: none; stroke-width: 1; stroke-dasharray: none; stroke-linecap: butt; stroke-linejoin: miter; stroke-miterlimit: 10; fill: rgb(0,0,0); fill-rule: nonzero; opacity: 1;" transform=" matrix(1 0 0 1 0 0) " stroke-linecap="round" />
</g>
</g>
</svg>