<?xml version="1.0" ?><svg width="24px" height="24px" viewBox="0 0 24 24" xmlns="http://www.w3.org/2000/svg"><defs><style>.cls-1{fill:#5dc6d1;}.cls-2{fill:#2eb1b7;}.cls-3{fill:#6c2e7c;}</style></defs><g id="Icons"><path class="cls-1" d="M23,10.82v2.36a1,1,0,0,1-.8.98l-1.55.31a8.372,8.372,0,0,1-.79,1.9l.88,1.31a1,1,0,0,1-.13,1.26l-1.67,1.67a1,1,0,0,1-1.26.13l-1.31-.88a8.372,8.372,0,0,1-1.9.79l-.31,1.55a1,1,0,0,1-.98.8H10.82a1,1,0,0,1-.98-.8l-.31-1.55a8.372,8.372,0,0,1-1.9-.79l-1.31.88a1,1,0,0,1-1.26-.13L3.39,18.94a1,1,0,0,1-.13-1.26l.88-1.31a8.372,8.372,0,0,1-.79-1.9L1.8,14.16a1,1,0,0,1-.8-.98V10.82a1,1,0,0,1,.8-.98l1.55-.31c0-.01.01-.02.01-.03a8.582,8.582,0,0,1,.78-1.87L3.26,6.32a1,1,0,0,1,.13-1.26L5.06,3.39a1,1,0,0,1,1.26-.13l1.31.88a8.372,8.372,0,0,1,1.9-.79L9.84,1.8a1,1,0,0,1,.98-.8h2.36a1,1,0,0,1,.98.8l.31,1.55a8.372,8.372,0,0,1,1.9.79l1.31-.88a1,1,0,0,1,1.26.13l1.67,1.67a1,1,0,0,1,.13,1.26l-.88,1.31a8.582,8.582,0,0,1,.78,1.87c0,.01.01.02.01.03l1.55.31A1,1,0,0,1,23,10.82Z"/><path class="cls-2" d="M23,10.82v2.36a1,1,0,0,1-.8.98l-1.55.31a8.372,8.372,0,0,1-.79,1.9l.88,1.31a1,1,0,0,1-.13,1.26l-1.67,1.67a1,1,0,0,1-1.26.13l-1.31-.88a8.372,8.372,0,0,1-1.9.79l-.31,1.55a1,1,0,0,1-.98.8H10.82a1,1,0,0,1-.98-.8l-.31-1.55a8.372,8.372,0,0,1-1.9-.79l-1.31.88a1,1,0,0,1-1.26-.13L3.39,18.94a1,1,0,0,1-.13-1.26l.88-1.31a8.372,8.372,0,0,1-.79-1.9L1.8,14.16a1,1,0,0,1-.8-.98V10.82a1,1,0,0,1,.8-.98l1.34-.27a9,9,0,0,0,17.72,0l1.34.27A1,1,0,0,1,23,10.82Z"/></g><g data-name="Layer 4" id="Layer_4"><path class="cls-3" d="M22.393,8.859l-.971-.194a9.99,9.99,0,0,0-.4-.971l.548-.821a2.008,2.008,0,0,0-.25-2.524L19.65,2.68a2.006,2.006,0,0,0-2.523-.25l-.821.548a9.99,9.99,0,0,0-.971-.4l-.194-.97A2,2,0,0,0,13.18,0H10.82A2,2,0,0,0,8.859,1.607l-.194.971a9.99,9.99,0,0,0-.971.4L6.873,2.43a2.007,2.007,0,0,0-2.524.25L2.68,4.35a2.007,2.007,0,0,0-.25,2.523l.548.821a9.99,9.99,0,0,0-.4.971l-.97.194A2,2,0,0,0,0,10.82v2.36a2,2,0,0,0,1.607,1.961l.971.194a9.99,9.99,0,0,0,.4.971l-.548.821a2.008,2.008,0,0,0,.25,2.524L4.35,21.32a2.009,2.009,0,0,0,2.523.25l.821-.548a9.99,9.99,0,0,0,.971.4l.194.97A2,2,0,0,0,10.82,24h2.36a2,2,0,0,0,1.961-1.607l.194-.971a9.99,9.99,0,0,0,.971-.4l.821.548a2.007,2.007,0,0,0,2.524-.25l1.669-1.67a2.007,2.007,0,0,0,.25-2.523l-.548-.821a9.99,9.99,0,0,0,.4-.971l.97-.194A2,2,0,0,0,24,13.18V10.82A2,2,0,0,0,22.393,8.859ZM22,13.18l-1.548.31a1,1,0,0,0-.765.706,8,8,0,0,1-.7,1.689,1,1,0,0,0,.041,1.041l.874,1.311-1.67,1.669-1.31-.874a1,1,0,0,0-1.041-.041,8,8,0,0,1-1.689.7,1,1,0,0,0-.706.765L13.18,22H10.82l-.31-1.548a1,1,0,0,0-.706-.765,8,8,0,0,1-1.689-.7,1,1,0,0,0-1.041.041l-1.311.874-1.669-1.67.874-1.31a1,1,0,0,0,.041-1.041,8,8,0,0,1-.7-1.689,1,1,0,0,0-.765-.706L2,13.18V10.82l1.548-.31A1,1,0,0,0,4.313,9.8a8,8,0,0,1,.7-1.689,1,1,0,0,0-.041-1.041L4.094,5.763l1.67-1.669,1.31.874a1,1,0,0,0,1.041.041,8,8,0,0,1,1.689-.7,1,1,0,0,0,.706-.765L10.82,2h2.36l.31,1.548a1,1,0,0,0,.706.765,8,8,0,0,1,1.689.7,1,1,0,0,0,1.041-.041l1.311-.874,1.669,1.67-.874,1.31a1,1,0,0,0-.041,1.041,8,8,0,0,1,.7,1.689,1,1,0,0,0,.765.706L22,10.82Z"/><path class="cls-3" d="M13,7a1,1,0,0,0-1-1,6.006,6.006,0,0,0-6,6,1,1,0,0,0,2,0,4,4,0,0,1,4-4A1,1,0,0,0,13,7Z"/><path class="cls-3" d="M17,11a1,1,0,0,0-1,1,4,4,0,0,1-4,4,1,1,0,0,0,0,2,6.006,6.006,0,0,0,6-6A1,1,0,0,0,17,11Z"/></g></svg>