<svg xmlns="http://www.w3.org/2000/svg" enable-background="new 0 0 1000 1000" viewBox="0 0 1000 1000"><rect width="1000" height="1000" fill="#dce2e1"/><path fill="#848484" d="M837.848,666.303H162.152c-4.971,0-9-4.029-9-9v0
		c0-4.971,4.029-9,9-9h675.696c4.971,0,9,4.029,9,9v0C846.848,662.273,842.818,666.303,837.848,666.303z" opacity=".28"/><path fill="#f09f54" d="M808.451,573.892c0-37.226-28.204-67.807-64.726-71.272v-8.411h-21.913v160.698
			h21.913v-9.742C780.247,641.7,808.451,611.118,808.451,573.892z M743.725,622.065v-96.344
			c23.374,3.355,41.785,23.673,41.785,48.172C785.51,598.392,767.099,618.71,743.725,622.065z"/><path fill="#f09f54" d="M743.725,502.62v-8.411h-21.913v160.698h21.913v-9.742
			c36.522-3.465,64.726-34.046,64.726-71.272C808.451,536.667,780.247,506.085,743.725,502.62z M743.725,637.805v8.337h-20.452
			V501.513h20.452v8.466c32.14,3.107,58.042,30.531,58.042,63.912C801.767,607.274,775.865,634.698,743.725,637.805z" opacity=".29"/><path fill="none" stroke="#444e59" stroke-linecap="round" stroke-linejoin="round" stroke-miterlimit="10" stroke-width="4" d="
			M808.451,573.892c0-37.226-28.204-67.807-64.726-71.272v-8.411h-21.913v160.698h21.913v-9.742
			C780.247,641.7,808.451,611.118,808.451,573.892z M743.725,622.065v-96.344c23.374,3.355,41.785,23.673,41.785,48.172
			C785.51,598.392,767.099,618.71,743.725,622.065z"/><line x1="730.577" x2="721.812" y1="638.837" y2="638.837" fill="none" stroke="#444e59" stroke-linecap="round" stroke-linejoin="round" stroke-miterlimit="10" stroke-width="3"/><line x1="730.577" x2="721.812" y1="622.767" y2="622.767" fill="none" stroke="#444e59" stroke-linecap="round" stroke-linejoin="round" stroke-miterlimit="10" stroke-width="3"/><line x1="730.577" x2="721.812" y1="606.698" y2="606.698" fill="none" stroke="#444e59" stroke-linecap="round" stroke-linejoin="round" stroke-miterlimit="10" stroke-width="3"/><line x1="730.577" x2="721.812" y1="590.628" y2="590.628" fill="none" stroke="#444e59" stroke-linecap="round" stroke-linejoin="round" stroke-miterlimit="10" stroke-width="3"/><line x1="730.577" x2="721.812" y1="574.558" y2="574.558" fill="none" stroke="#444e59" stroke-linecap="round" stroke-linejoin="round" stroke-miterlimit="10" stroke-width="3"/><line x1="730.577" x2="721.812" y1="558.488" y2="558.488" fill="none" stroke="#444e59" stroke-linecap="round" stroke-linejoin="round" stroke-miterlimit="10" stroke-width="3"/><line x1="730.577" x2="721.812" y1="542.418" y2="542.418" fill="none" stroke="#444e59" stroke-linecap="round" stroke-linejoin="round" stroke-miterlimit="10" stroke-width="3"/><line x1="730.577" x2="721.812" y1="526.349" y2="526.349" fill="none" stroke="#444e59" stroke-linecap="round" stroke-linejoin="round" stroke-miterlimit="10" stroke-width="3"/><line x1="730.577" x2="721.812" y1="510.279" y2="510.279" fill="none" stroke="#444e59" stroke-linecap="round" stroke-linejoin="round" stroke-miterlimit="10" stroke-width="3"/><rect width="33.082" height="241.643" x="673.257" y="412.891" fill="#f09f54"/><rect width="33.082" height="241.643" x="673.257" y="412.891" fill="#f09f54"/><rect width="14.384" height="241.643" x="691.956" y="412.891" fill="#f09f54" opacity=".29"/><rect width="33.082" height="241.643" x="673.257" y="412.891" fill="none" stroke="#444e59" stroke-linecap="round" stroke-linejoin="round" stroke-miterlimit="10" stroke-width="4"/><line x1="684.764" x2="673.257" y1="630.082" y2="630.082" fill="none" stroke="#444e59" stroke-linecap="round" stroke-linejoin="round" stroke-miterlimit="10" stroke-width="3"/><line x1="680.449" x2="673.257" y1="641.589" y2="641.589" fill="none" stroke="#444e59" stroke-linecap="round" stroke-linejoin="round" stroke-miterlimit="10" stroke-width="3"/><line x1="684.764" x2="673.257" y1="607.069" y2="607.069" fill="none" stroke="#444e59" stroke-linecap="round" stroke-linejoin="round" stroke-miterlimit="10" stroke-width="3"/><line x1="680.449" x2="673.257" y1="618.576" y2="618.576" fill="none" stroke="#444e59" stroke-linecap="round" stroke-linejoin="round" stroke-miterlimit="10" stroke-width="3"/><line x1="684.764" x2="673.257" y1="584.055" y2="584.055" fill="none" stroke="#444e59" stroke-linecap="round" stroke-linejoin="round" stroke-miterlimit="10" stroke-width="3"/><line x1="680.449" x2="673.257" y1="595.562" y2="595.562" fill="none" stroke="#444e59" stroke-linecap="round" stroke-linejoin="round" stroke-miterlimit="10" stroke-width="3"/><line x1="684.764" x2="673.257" y1="561.041" y2="561.041" fill="none" stroke="#444e59" stroke-linecap="round" stroke-linejoin="round" stroke-miterlimit="10" stroke-width="3"/><line x1="680.449" x2="673.257" y1="572.548" y2="572.548" fill="none" stroke="#444e59" stroke-linecap="round" stroke-linejoin="round" stroke-miterlimit="10" stroke-width="3"/><line x1="684.764" x2="673.257" y1="538.028" y2="538.028" fill="none" stroke="#444e59" stroke-linecap="round" stroke-linejoin="round" stroke-miterlimit="10" stroke-width="3"/><line x1="680.449" x2="673.257" y1="549.535" y2="549.535" fill="none" stroke="#444e59" stroke-linecap="round" stroke-linejoin="round" stroke-miterlimit="10" stroke-width="3"/><line x1="684.764" x2="673.257" y1="515.014" y2="515.014" fill="none" stroke="#444e59" stroke-linecap="round" stroke-linejoin="round" stroke-miterlimit="10" stroke-width="3"/><line x1="680.449" x2="673.257" y1="526.521" y2="526.521" fill="none" stroke="#444e59" stroke-linecap="round" stroke-linejoin="round" stroke-miterlimit="10" stroke-width="3"/><line x1="684.764" x2="673.257" y1="492.001" y2="492.001" fill="none" stroke="#444e59" stroke-linecap="round" stroke-linejoin="round" stroke-miterlimit="10" stroke-width="3"/><line x1="680.449" x2="673.257" y1="503.507" y2="503.507" fill="none" stroke="#444e59" stroke-linecap="round" stroke-linejoin="round" stroke-miterlimit="10" stroke-width="3"/><line x1="684.764" x2="673.257" y1="468.987" y2="468.987" fill="none" stroke="#444e59" stroke-linecap="round" stroke-linejoin="round" stroke-miterlimit="10" stroke-width="3"/><line x1="680.449" x2="673.257" y1="480.494" y2="480.494" fill="none" stroke="#444e59" stroke-linecap="round" stroke-linejoin="round" stroke-miterlimit="10" stroke-width="3"/><line x1="684.764" x2="673.257" y1="445.973" y2="445.973" fill="none" stroke="#444e59" stroke-linecap="round" stroke-linejoin="round" stroke-miterlimit="10" stroke-width="3"/><line x1="680.449" x2="673.257" y1="457.48" y2="457.48" fill="none" stroke="#444e59" stroke-linecap="round" stroke-linejoin="round" stroke-miterlimit="10" stroke-width="3"/><line x1="684.764" x2="673.257" y1="422.96" y2="422.96" fill="none" stroke="#444e59" stroke-linecap="round" stroke-linejoin="round" stroke-miterlimit="10" stroke-width="3"/><line x1="680.449" x2="673.257" y1="434.467" y2="434.467" fill="none" stroke="#444e59" stroke-linecap="round" stroke-linejoin="round" stroke-miterlimit="10" stroke-width="3"/><rect width="12.942" height="34.12" x="612.11" y="471.347" fill="#848484"/><rect width="4.78" height="34.12" x="612.11" y="471.347" fill="#848484" opacity=".25"/><rect width="12.942" height="34.12" x="612.11" y="471.347" fill="none" stroke="#444e59" stroke-linecap="round" stroke-linejoin="round" stroke-miterlimit="10" stroke-width="4"/><rect width="5.883" height="16.472" x="615.64" y="505.467" fill="#fff"/><rect width="5.883" height="16.472" x="615.64" y="505.467" fill="none" stroke="#444e59" stroke-linecap="round" stroke-linejoin="round" stroke-miterlimit="10" stroke-width="4"/><polygon fill="#fff" points="608.637 536.732 578.643 654.417 624.219 538.273"/><polygon fill="none" stroke="#444e59" stroke-linecap="round" stroke-linejoin="round" stroke-miterlimit="10" stroke-width="4" points="608.637 536.732 578.643 654.417 624.219 538.273"/><polygon fill="#fff" points="628.633 536.732 658.627 654.417 613.05 538.273"/><polygon fill="none" stroke="#444e59" stroke-linecap="round" stroke-linejoin="round" stroke-miterlimit="10" stroke-width="4" points="628.633 536.732 658.627 654.417 613.05 538.273"/><circle cx="618.64" cy="539.765" r="20.001" fill="#71a850"/><path fill="#71a850" d="M604.218,539.765c0-10.097,7.489-18.424,17.211-19.784
			c-0.914-0.128-1.84-0.217-2.79-0.217c-11.046,0-20.001,8.955-20.001,20.001s8.955,20.001,20.001,20.001
			c0.949,0,1.876-0.089,2.79-0.217C611.708,558.189,604.218,549.862,604.218,539.765z" opacity=".4"/><circle cx="618.64" cy="539.765" r="20.001" fill="none" stroke="#444e59" stroke-linecap="round" stroke-linejoin="round" stroke-miterlimit="10" stroke-width="4"/><circle cx="618.64" cy="539.765" r="6.776" fill="#444e59"/><circle cx="618.64" cy="539.765" r="6.776" fill="none" stroke="#444e59" stroke-linecap="round" stroke-linejoin="round" stroke-miterlimit="10" stroke-width="4"/><path fill="#848484" d="M546.416,654.168h-132c-7.732,0-14-6.268-14-14v-272c0-7.732,6.268-14,14-14h132
		c7.732,0,14,6.268,14,14v272C560.416,647.9,554.148,654.168,546.416,654.168z"/><path fill="#848484" d="M546.416,354.168h-8.456c7.732,0,14,6.268,14,14v272
		c0,7.732-6.268,14-14,14h8.456c7.732,0,14-6.268,14-14v-272C560.416,360.436,554.148,354.168,546.416,354.168z" opacity=".28"/><path fill="#848484" d="M408.749,640.168v-272c0-7.732,6.268-14,14-14h-8.333
		c-7.732,0-14,6.268-14,14v272c0,7.732,6.268,14,14,14h8.333C415.017,654.168,408.749,647.9,408.749,640.168z" opacity=".48"/><path fill="none" stroke="#444e59" stroke-linecap="round" stroke-linejoin="round" stroke-miterlimit="10" stroke-width="4" d="
		M546.416,654.168h-132c-7.732,0-14-6.268-14-14v-272c0-7.732,6.268-14,14-14h132c7.732,0,14,6.268,14,14v272
		C560.416,647.9,554.148,654.168,546.416,654.168z"/><rect width="224" height="160" x="368.416" y="423.704" fill="#e9fbff" transform="rotate(90 480.416 503.704)"/><path fill="#c9c9c9" d="M559.592 463.861h-12.481c-6.787 0-12.289-5.502-12.289-12.289V421.07c0-6.787 5.502-12.289 12.289-12.289h12.481V463.861zM409.566 587.527h-9.15v-97.272h9.15c6.888 0 12.472 5.584 12.472 12.472v72.329C422.038 581.944 416.454 587.527 409.566 587.527z"/><rect width="224" height="160" x="368.416" y="423.704" fill="none" stroke="#444e59" stroke-linecap="round" stroke-linejoin="round" stroke-miterlimit="10" stroke-width="4" transform="rotate(90 480.416 503.704)"/><g><line x1="502.416" x2="509.416" y1="374.204" y2="374.204" fill="none" stroke="#444e59" stroke-linecap="round" stroke-linejoin="round" stroke-miterlimit="10" stroke-width="5"/><line x1="451.416" x2="491.416" y1="374.204" y2="374.204" fill="none" stroke="#444e59" stroke-linecap="round" stroke-linejoin="round" stroke-miterlimit="10" stroke-width="5"/></g><g><circle cx="480.416" cy="632.59" r="10.953" fill="#848484" opacity=".29"/><circle cx="480.416" cy="632.59" r="8.402" fill="#444e59"/></g><g opacity=".3"><path fill="none" stroke="#444e59" stroke-dasharray="4.079 4.079" stroke-linecap="round" stroke-linejoin="round" stroke-width="2" d="M443.856 588.891h-16c-4.418 0-8-3.582-8-8v-16c0-4.418 3.582-8 8-8h16c4.418 0 8 3.582 8 8v16C451.856 585.31 448.274 588.891 443.856 588.891zM532.416 588.891h-16c-4.418 0-8-3.582-8-8v-16c0-4.418 3.582-8 8-8h16c4.418 0 8 3.582 8 8v16C540.416 585.31 536.834 588.891 532.416 588.891zM488.416 588.891h-16c-4.418 0-8-3.582-8-8v-16c0-4.418 3.582-8 8-8h16c4.418 0 8 3.582 8 8v16C496.416 585.31 492.834 588.891 488.416 588.891zM443.856 540.891h-16c-4.418 0-8-3.582-8-8v-16c0-4.418 3.582-8 8-8h16c4.418 0 8 3.582 8 8v16C451.856 537.31 448.274 540.891 443.856 540.891zM532.416 540.891h-16c-4.418 0-8-3.582-8-8v-16c0-4.418 3.582-8 8-8h16c4.418 0 8 3.582 8 8v16C540.416 537.31 536.834 540.891 532.416 540.891zM488.416 540.891h-16c-4.418 0-8-3.582-8-8v-16c0-4.418 3.582-8 8-8h16c4.418 0 8 3.582 8 8v16C496.416 537.31 492.834 540.891 488.416 540.891z"/><g><path fill="none" stroke="#444e59" stroke-dasharray="4.079 4.079" stroke-linecap="round" stroke-linejoin="round" stroke-width="2" d="M443.856 492.891h-16c-4.418 0-8-3.582-8-8v-16c0-4.418 3.582-8 8-8h16c4.418 0 8 3.582 8 8v16C451.856 489.31 448.274 492.891 443.856 492.891zM532.416 492.891h-16c-4.418 0-8-3.582-8-8v-16c0-4.418 3.582-8 8-8h16c4.418 0 8 3.582 8 8v16C540.416 489.31 536.834 492.891 532.416 492.891zM488.416 492.891h-16c-4.418 0-8-3.582-8-8v-16c0-4.418 3.582-8 8-8h16c4.418 0 8 3.582 8 8v16C496.416 489.31 492.834 492.891 488.416 492.891z"/></g><g><path fill="none" stroke="#444e59" stroke-dasharray="4.079 4.079" stroke-linecap="round" stroke-linejoin="round" stroke-width="2" d="M443.856 444.891h-16c-4.418 0-8-3.582-8-8v-16c0-4.418 3.582-8 8-8h16c4.418 0 8 3.582 8 8v16C451.856 441.31 448.274 444.891 443.856 444.891zM532.416 444.891h-16c-4.418 0-8-3.582-8-8v-16c0-4.418 3.582-8 8-8h16c4.418 0 8 3.582 8 8v16C540.416 441.31 536.834 444.891 532.416 444.891zM488.416 444.891h-16c-4.418 0-8-3.582-8-8v-16c0-4.418 3.582-8 8-8h16c4.418 0 8 3.582 8 8v16C496.416 441.31 492.834 444.891 488.416 444.891z"/></g></g><path fill="#71a850" d="M443.856,588.891h-16c-4.418,0-8-3.582-8-8v-16c0-4.418,3.582-8,8-8h16
		c4.418,0,8,3.582,8,8v16C451.856,585.31,448.274,588.891,443.856,588.891z"/><path fill="#5f8c42" d="M443.851,556.891h-16c-3.204,0-5.961,1.889-7.238,4.609l31.238,5.625
		v-2.235C451.851,560.473,448.27,556.891,443.851,556.891z" opacity=".52"/><path fill="none" stroke="#444e59" stroke-linecap="round" stroke-linejoin="round" stroke-miterlimit="10" stroke-width="4" d="
		M443.856,588.891h-16c-4.418,0-8-3.582-8-8v-16c0-4.418,3.582-8,8-8h16c4.418,0,8,3.582,8,8v16
		C451.856,585.31,448.274,588.891,443.856,588.891z"/><path fill="#f09f54" d="M488.416,588.891h-16c-4.418,0-8-3.582-8-8v-16c0-4.418,3.582-8,8-8h16
		c4.418,0,8,3.582,8,8v16C496.416,585.31,492.834,588.891,488.416,588.891z"/><path fill="#d38444" d="M488.416,556.891h-16c-3.204,0-5.961,1.889-7.238,4.609l31.238,5.625
		v-2.235C496.416,560.473,492.834,556.891,488.416,556.891z" opacity=".52"/><path fill="none" stroke="#444e59" stroke-linecap="round" stroke-linejoin="round" stroke-miterlimit="10" stroke-width="4" d="
		M488.416,588.891h-16c-4.418,0-8-3.582-8-8v-16c0-4.418,3.582-8,8-8h16c4.418,0,8,3.582,8,8v16
		C496.416,585.31,492.834,588.891,488.416,588.891z"/><g><path fill="#2fa9ed" d="M532.416,540.891h-16c-4.418,0-8-3.582-8-8v-16c0-4.418,3.582-8,8-8h16
			c4.418,0,8,3.582,8,8v16C540.416,537.31,536.834,540.891,532.416,540.891z"/></g><path fill="#288fbc" d="M532.416,508.891h-16c-3.204,0-5.961,1.889-7.238,4.609l31.238,5.625
		v-2.235C540.416,512.473,536.834,508.891,532.416,508.891z" opacity=".52"/><g><path fill="none" stroke="#444e59" stroke-linecap="round" stroke-linejoin="round" stroke-miterlimit="10" stroke-width="4" d="
			M532.416,540.891h-16c-4.418,0-8-3.582-8-8v-16c0-4.418,3.582-8,8-8h16c4.418,0,8,3.582,8,8v16
			C540.416,537.31,536.834,540.891,532.416,540.891z"/></g><g><path fill="#e7534e" d="M488.416,492.891h-16c-4.418,0-8-3.582-8-8v-16c0-4.418,3.582-8,8-8h16
				c4.418,0,8,3.582,8,8v16C496.416,489.31,492.834,492.891,488.416,492.891z"/></g><path fill="#bf4040" d="M488.416,460.891h-16c-3.204,0-5.961,1.889-7.238,4.609l31.238,5.625
		v-2.235C496.416,464.473,492.834,460.891,488.416,460.891z" opacity=".52"/><g><path fill="none" stroke="#444e59" stroke-linecap="round" stroke-linejoin="round" stroke-miterlimit="10" stroke-width="4" d="
			M488.416,492.891h-16c-4.418,0-8-3.582-8-8v-16c0-4.418,3.582-8,8-8h16c4.418,0,8,3.582,8,8v16
			C496.416,489.31,492.834,492.891,488.416,492.891z"/></g><path fill="#fff" d="M521.811 517.865l9.194 5.308c1.323.764 1.323 2.673 0 3.436l-9.194 5.308c-1.323.764-2.976-.191-2.976-1.718v-10.616C518.835 518.056 520.488 517.101 521.811 517.865zM484.63 566.683h-8.429c-1.79 0-3.242 1.451-3.242 3.242v6.186c0 1.79 1.451 3.242 3.242 3.242h.256l-.698 2.798c-.051.204.18.362.352.24l4.262-3.037h4.257c1.79 0 3.242-1.451 3.242-3.242v-6.186C487.872 568.134 486.42 566.683 484.63 566.683z"/><path fill="none" stroke="#fff" stroke-linecap="round" stroke-linejoin="round" stroke-miterlimit="10" stroke-width="4" d="
		M429.738,572.873l3.674,3.674c0.503,0.503,1.319,0.503,1.823,0l8.259-8.259"/><circle cx="480.416" cy="476.891" r="7.456" fill="none" stroke="#fff" stroke-linecap="round" stroke-linejoin="round" stroke-miterlimit="10" stroke-width="4"/><g><path fill="#fff" d="M420.032,437.93l-0.158-14.963l-10.019,0.106c-0.565-1.865-1.325-3.644-2.262-5.31
			l7.008-7.157l-10.693-10.469l-7.008,7.157c-1.686-0.902-3.48-1.624-5.356-2.15l-0.106-10.019l-14.963,0.158l0.106,10.02
			c-1.865,0.566-3.644,1.325-5.31,2.262l-7.158-7.008l-10.469,10.693l7.157,7.008c-0.902,1.685-1.624,3.48-2.15,5.356l-10.019,0.106
			l0.158,14.963l10.02-0.106c0.565,1.865,1.325,3.644,2.262,5.31l-7.008,7.157l10.692,10.469l7.008-7.157
			c1.686,0.902,3.48,1.624,5.357,2.15l0.106,10.02l14.963-0.158l-0.106-10.019c1.865-0.565,3.644-1.325,5.31-2.262l7.157,7.008
			L415.02,450.4l-7.157-7.008c0.902-1.685,1.624-3.48,2.15-5.356L420.032,437.93z M384.455,442.504
			c-6.45,0.068-11.735-5.106-11.803-11.556c-0.068-6.45,5.106-11.735,11.556-11.803c6.45-0.068,11.735,5.106,11.803,11.556
			C396.08,437.152,390.906,442.436,384.455,442.504z"/><path fill="#f09f54" d="M420.032,437.93l-0.158-14.963l-10.019,0.106c-0.565-1.865-1.325-3.644-2.262-5.31
			l7.008-7.157l-10.693-10.469l-7.008,7.157c-1.686-0.902-3.48-1.624-5.356-2.15l-0.106-10.019l-14.963,0.158l0.106,10.02
			c-1.865,0.566-3.644,1.325-5.31,2.262l-7.158-7.008l-10.469,10.693l7.157,7.008c-0.902,1.685-1.624,3.48-2.15,5.356l-10.019,0.106
			l0.158,14.963l10.02-0.106c0.565,1.865,1.325,3.644,2.262,5.31l-7.008,7.157l10.692,10.469l7.008-7.157
			c1.686,0.902,3.48,1.624,5.357,2.15l0.106,10.02l14.963-0.158l-0.106-10.019c1.865-0.565,3.644-1.325,5.31-2.262l7.157,7.008
			L415.02,450.4l-7.157-7.008c0.902-1.685,1.624-3.48,2.15-5.356L420.032,437.93z M384.455,442.504
			c-6.45,0.068-11.735-5.106-11.803-11.556c-0.068-6.45,5.106-11.735,11.556-11.803c6.45-0.068,11.735,5.106,11.803,11.556
			C396.08,437.152,390.906,442.436,384.455,442.504z"/><path fill="#f09f54" d="M420.032,437.93l-0.158-14.963l-10.019,0.106c-0.565-1.865-1.325-3.644-2.262-5.31
			l7.008-7.157l-10.693-10.469l-7.008,7.157c-1.686-0.902-3.48-1.624-5.356-2.15l-0.106-10.019l-14.963,0.158l0.106,10.02
			c-1.865,0.566-3.644,1.325-5.31,2.262l-7.158-7.008l-10.469,10.693l7.157,7.008c-0.902,1.685-1.624,3.48-2.15,5.356l-10.019,0.106
			l0.158,14.963l10.02-0.106c0.565,1.865,1.325,3.644,2.262,5.31l-7.008,7.157l10.692,10.469l7.008-7.157
			c1.686,0.902,3.48,1.624,5.357,2.15l0.106,10.02l14.963-0.158l-0.106-10.019c1.865-0.565,3.644-1.325,5.31-2.262l7.157,7.008
			L415.02,450.4l-7.157-7.008c0.902-1.685,1.624-3.48,2.15-5.356L420.032,437.93z M384.455,442.504
			c-6.45,0.068-11.735-5.106-11.803-11.556c-0.068-6.45,5.106-11.735,11.556-11.803c6.45-0.068,11.735,5.106,11.803,11.556
			C396.08,437.152,390.906,442.436,384.455,442.504z"/><g opacity=".29"><path fill="#f09f54" d="M416.157 423.006c.007.022.015.044.022.066l3.696-.039-.001-.067L416.157 423.006zM403.224 407.294l3.912-3.996-3.229-3.162-5.167 5.278C400.3 405.909 401.803 406.533 403.224 407.294zM390.533 419.145c-1.051.011-2.062.173-3.028.444 4.861 1.371 8.45 5.806 8.506 11.113.057 5.4-3.565 9.97-8.529 11.359 1.048.296 2.153.456 3.297.444 6.451-.068 11.624-5.352 11.556-11.803S396.984 419.077 390.533 419.145zM375.613 405.624l1.982 1.94c1.666-.938 3.445-1.697 5.31-2.262l-.106-10.02 8.639-.091-.001-.067-14.963.158.106 10.02C376.254 405.401 375.934 405.513 375.613 405.624zM383.445 456.504c-1.876-.526-3.671-1.248-5.357-2.15l-1.84 1.88c.29.092.578.188.872.27l.106 10.02 6.324-.067L383.445 456.504zM354.957 423.719l10.019-.106c.526-1.876 1.247-3.671 2.15-5.356l-7.157-7.008 7.373-7.531-3.229-3.162-10.469 10.693 7.157 7.008c-.902 1.685-1.624 3.48-2.15 5.356l-10.019.106.158 14.963 6.324-.067L354.957 423.719zM403.718 454.084c-1.375.774-2.83 1.418-4.343 1.94l5.176 5.068 3.096-3.162L403.718 454.084zM360.389 451.043l7.008-7.157c-.938-1.666-1.697-3.445-2.262-5.31l-6.302.066c.563 1.84 1.314 3.597 2.24 5.243l-7.008 7.157 10.692 10.469 3.096-3.162L360.389 451.043z"/></g><path fill="none" stroke="#444e59" stroke-linecap="round" stroke-linejoin="round" stroke-miterlimit="10" stroke-width="4" d="
			M420.032,437.93l-0.158-14.963l-10.019,0.106c-0.565-1.865-1.325-3.644-2.262-5.31l7.008-7.157l-10.693-10.469l-7.008,7.157
			c-1.686-0.902-3.48-1.624-5.356-2.15l-0.106-10.019l-14.963,0.158l0.106,10.02c-1.865,0.566-3.644,1.325-5.31,2.262l-7.158-7.008
			l-10.469,10.693l7.157,7.008c-0.902,1.685-1.624,3.48-2.15,5.356l-10.019,0.106l0.158,14.963l10.02-0.106
			c0.565,1.865,1.325,3.644,2.262,5.31l-7.008,7.157l10.692,10.469l7.008-7.157c1.686,0.902,3.48,1.624,5.357,2.15l0.106,10.02
			l14.963-0.158l-0.106-10.019c1.865-0.565,3.644-1.325,5.31-2.262l7.157,7.008L415.02,450.4l-7.157-7.008
			c0.902-1.685,1.624-3.48,2.15-5.356L420.032,437.93z M384.455,442.504c-6.45,0.068-11.735-5.106-11.803-11.556
			c-0.068-6.45,5.106-11.735,11.556-11.803c6.45-0.068,11.735,5.106,11.803,11.556C396.08,437.152,390.906,442.436,384.455,442.504z
			"/></g><g><path fill="#444e59" d="M357.531,654.168H233.775c-4.064,0-7.359-3.295-7.359-7.359v-84.639
			c0-4.064,3.295-7.359,7.359-7.359h123.757c4.064,0,7.359,3.295,7.359,7.359v84.639
			C364.891,650.873,361.596,654.168,357.531,654.168z"/><path fill="#bcbcbc" d="M364.891,570.891H226.416v-8.721c0-4.064,3.295-7.359,7.359-7.359h123.756
			c4.065,0,7.36,3.295,7.36,7.36V570.891z"/><path fill="none" stroke="#444e59" stroke-linecap="round" stroke-linejoin="round" stroke-miterlimit="10" stroke-width="4" d="
			M357.531,654.168H233.775c-4.064,0-7.359-3.295-7.359-7.359v-84.639c0-4.064,3.295-7.359,7.359-7.359h123.757
			c4.064,0,7.359,3.295,7.359,7.359v84.639C364.891,650.873,361.596,654.168,357.531,654.168z"/><path fill="none" stroke="#444e59" stroke-linecap="round" stroke-linejoin="round" stroke-miterlimit="10" stroke-width="4" d="
			M357.531,654.168H233.775c-4.064,0-7.359-3.295-7.359-7.359v-84.639c0-4.064,3.295-7.359,7.359-7.359h123.757
			c4.064,0,7.359,3.295,7.359,7.359v84.639C364.891,650.873,361.596,654.168,357.531,654.168z"/><path fill="none" stroke="#444e59" stroke-linecap="round" stroke-linejoin="round" stroke-miterlimit="10" stroke-width="4" d="
			M364.891,570.891H226.416v-8.721c0-4.064,3.295-7.359,7.359-7.359h123.756c4.065,0,7.36,3.295,7.36,7.36V570.891z"/><line x1="245.54" x2="261.12" y1="641.494" y2="641.494" fill="none" stroke="#fff" stroke-linecap="round" stroke-linejoin="round" stroke-miterlimit="10" stroke-width="4"/><line x1="234.507" x2="235.594" y1="641.494" y2="641.494" fill="none" stroke="#fff" stroke-linecap="round" stroke-linejoin="round" stroke-miterlimit="10" stroke-width="4"/><line x1="245.54" x2="285.024" y1="632.87" y2="632.87" fill="none" stroke="#fff" stroke-linecap="round" stroke-linejoin="round" stroke-miterlimit="10" stroke-width="4"/><line x1="234.507" x2="235.594" y1="632.87" y2="632.87" fill="none" stroke="#fff" stroke-linecap="round" stroke-linejoin="round" stroke-miterlimit="10" stroke-width="4"/><line x1="303.827" x2="314.57" y1="624.245" y2="624.245" fill="none" stroke="#64bdff" stroke-linecap="round" stroke-linejoin="round" stroke-miterlimit="10" stroke-width="4"/><line x1="274.414" x2="294.426" y1="624.245" y2="624.245" fill="none" stroke="#fff" stroke-linecap="round" stroke-linejoin="round" stroke-miterlimit="10" stroke-width="4"/><line x1="245.54" x2="265.282" y1="624.245" y2="624.245" fill="none" stroke="#ff5f5f" stroke-linecap="round" stroke-linejoin="round" stroke-miterlimit="10" stroke-width="4"/><line x1="234.507" x2="235.594" y1="624.245" y2="624.245" fill="none" stroke="#fff" stroke-linecap="round" stroke-linejoin="round" stroke-miterlimit="10" stroke-width="4"/><g><line x1="278.846" x2="327.009" y1="615.62" y2="615.62" fill="none" stroke="#fff" stroke-linecap="round" stroke-linejoin="round" stroke-miterlimit="10" stroke-width="4"/><line x1="245.54" x2="270.654" y1="615.62" y2="615.62" fill="none" stroke="#64bdff" stroke-linecap="round" stroke-linejoin="round" stroke-miterlimit="10" stroke-width="4"/><line x1="234.507" x2="235.594" y1="615.62" y2="615.62" fill="none" stroke="#fff" stroke-linecap="round" stroke-linejoin="round" stroke-miterlimit="10" stroke-width="4"/></g><g><line x1="278.846" x2="296.842" y1="606.995" y2="606.995" fill="none" stroke="#ff5f5f" stroke-linecap="round" stroke-linejoin="round" stroke-miterlimit="10" stroke-width="4"/><line x1="245.54" x2="270.654" y1="606.995" y2="606.995" fill="none" stroke="#ffbe78" stroke-linecap="round" stroke-linejoin="round" stroke-miterlimit="10" stroke-width="4"/><line x1="234.507" x2="235.594" y1="606.995" y2="606.995" fill="none" stroke="#fff" stroke-linecap="round" stroke-linejoin="round" stroke-miterlimit="10" stroke-width="4"/></g><g><line x1="282.338" x2="287.173" y1="598.37" y2="598.37" fill="none" stroke="#64bdff" stroke-linecap="round" stroke-linejoin="round" stroke-miterlimit="10" stroke-width="4"/><line x1="263.268" x2="274.415" y1="598.37" y2="598.37" fill="none" stroke="#ff5f5f" stroke-linecap="round" stroke-linejoin="round" stroke-miterlimit="10" stroke-width="4"/><line x1="245.54" x2="254.672" y1="598.37" y2="598.37" fill="none" stroke="#c383f2" stroke-linecap="round" stroke-linejoin="round" stroke-miterlimit="10" stroke-width="4"/><line x1="234.507" x2="235.594" y1="598.37" y2="598.37" fill="none" stroke="#fff" stroke-linecap="round" stroke-linejoin="round" stroke-miterlimit="10" stroke-width="4"/></g><g><line x1="318.331" x2="327.009" y1="589.745" y2="589.745" fill="none" stroke="#64bdff" stroke-linecap="round" stroke-linejoin="round" stroke-miterlimit="10" stroke-width="4"/><line x1="273.206" x2="307.319" y1="589.745" y2="589.745" fill="none" stroke="#ff5f5f" stroke-linecap="round" stroke-linejoin="round" stroke-miterlimit="10" stroke-width="4"/><line x1="245.54" x2="265.82" y1="589.745" y2="589.745" fill="none" stroke="#ffbe78" stroke-linecap="round" stroke-linejoin="round" stroke-miterlimit="10" stroke-width="4"/><line x1="234.507" x2="235.594" y1="589.745" y2="589.745" fill="none" stroke="#fff" stroke-linecap="round" stroke-linejoin="round" stroke-miterlimit="10" stroke-width="4"/></g><g><line x1="296.842" x2="314.57" y1="581.12" y2="581.12" fill="none" stroke="#ffbe78" stroke-linecap="round" stroke-linejoin="round" stroke-miterlimit="10" stroke-width="4"/><line x1="274.415" x2="288.248" y1="581.12" y2="581.12" fill="none" stroke="#6dbf7b" stroke-linecap="round" stroke-linejoin="round" stroke-miterlimit="10" stroke-width="4"/><line x1="259.373" x2="267.163" y1="581.12" y2="581.12" fill="none" stroke="#ffbe78" stroke-linecap="round" stroke-linejoin="round" stroke-miterlimit="10" stroke-width="4"/><line x1="245.54" x2="251.852" y1="581.12" y2="581.12" fill="none" stroke="#6dbf7b" stroke-linecap="round" stroke-linejoin="round" stroke-miterlimit="10" stroke-width="4"/><line x1="234.507" x2="235.594" y1="581.12" y2="581.12" fill="none" stroke="#fff" stroke-linecap="round" stroke-linejoin="round" stroke-miterlimit="10" stroke-width="4"/></g><g><circle cx="240.068" cy="562.85" r="2.534" fill="#e7534e"/><circle cx="249.141" cy="562.85" r="2.534" fill="#444e59"/><circle cx="258.214" cy="562.85" r="2.534" fill="#444e59"/></g></g><path fill="#fff" d="M406.786,579.704h-89.587c-4.418,0-8-3.582-8-8V490.85c0-4.418,3.582-8,8-8h89.587
		c4.418,0,8,3.582,8,8v80.853C414.786,576.122,411.204,579.704,406.786,579.704z"/><path fill="#fff" d="M406.786,579.704h-89.587c-4.418,0-8-3.582-8-8V490.85c0-4.418,3.582-8,8-8h89.587
		c4.418,0,8,3.582,8,8v80.853C414.786,576.122,411.204,579.704,406.786,579.704z"/><path fill="none" stroke="#444e59" stroke-linecap="round" stroke-linejoin="round" stroke-miterlimit="10" stroke-width="4" d="
		M406.786,579.704h-89.587c-4.418,0-8-3.582-8-8V490.85c0-4.418,3.582-8,8-8h89.587c4.418,0,8,3.582,8,8v80.853
		C414.786,576.122,411.204,579.704,406.786,579.704z"/><rect width="86.751" height="57.667" x="318.331" y="491.037" fill="#9483c4"/><rect width="86.751" height="57.667" x="318.331" y="491.037" fill="none" stroke="#444e59" stroke-linecap="round" stroke-linejoin="round" stroke-miterlimit="10" stroke-width="4"/><line x1="318.331" x2="373.082" y1="557.891" y2="557.891" fill="none" stroke="#444e59" stroke-linecap="round" stroke-linejoin="round" stroke-miterlimit="10" stroke-width="4"/><line x1="318.331" x2="350.749" y1="567.126" y2="567.126" fill="none" stroke="#444e59" stroke-linecap="round" stroke-linejoin="round" stroke-miterlimit="10" stroke-width="4"/><polyline fill="none" stroke="#444e59" stroke-linecap="round" stroke-linejoin="round" stroke-miterlimit="10" stroke-width="4" points="327.009 538.37 345.707 519.87 363.099 537.263"/><polyline fill="none" stroke="#444e59" stroke-linecap="round" stroke-linejoin="round" stroke-miterlimit="10" stroke-width="4" points="395.749 538.37 373.082 508.891 354.957 529.12"/><circle cx="395.508" cy="562.085" r="4.907" fill="none" stroke="#444e59" stroke-linecap="round" stroke-linejoin="round" stroke-miterlimit="10" stroke-width="4"/><circle cx="351.21" cy="508.923" r="6.156" fill="#f09f54"/><circle cx="351.21" cy="508.923" r="6.156" fill="none" stroke="#444e59" stroke-linecap="round" stroke-linejoin="round" stroke-miterlimit="10" stroke-width="4"/><g><line x1="307.513" x2="334.29" y1="454.316" y2="454.316" fill="none" stroke="#444e59" stroke-linecap="round" stroke-linejoin="round" stroke-miterlimit="10" stroke-width="4"/><line x1="293.227" x2="300.301" y1="454.316" y2="454.316" fill="none" stroke="#444e59" stroke-linecap="round" stroke-linejoin="round" stroke-miterlimit="10" stroke-width="4"/><line x1="320.902" x2="334.29" y1="441.891" y2="441.891" fill="none" stroke="#444e59" stroke-linecap="round" stroke-linejoin="round" stroke-miterlimit="10" stroke-width="4"/><line x1="310.124" x2="314.123" y1="441.891" y2="441.891" fill="none" stroke="#444e59" stroke-linecap="round" stroke-linejoin="round" stroke-miterlimit="10" stroke-width="4"/></g><g><line x1="278.512" x2="299.378" y1="532.734" y2="532.734" fill="none" stroke="#444e59" stroke-linecap="round" stroke-linejoin="round" stroke-miterlimit="10" stroke-width="4"/><line x1="267.381" x2="272.893" y1="532.734" y2="532.734" fill="none" stroke="#444e59" stroke-linecap="round" stroke-linejoin="round" stroke-miterlimit="10" stroke-width="4"/><line x1="290.868" x2="299.378" y1="520.308" y2="520.308" fill="none" stroke="#444e59" stroke-linecap="round" stroke-linejoin="round" stroke-miterlimit="10" stroke-width="4"/><line x1="280.547" x2="283.663" y1="520.308" y2="520.308" fill="none" stroke="#444e59" stroke-linecap="round" stroke-linejoin="round" stroke-miterlimit="10" stroke-width="4"/></g><g><line x1="611.773" x2="631.638" y1="387.629" y2="387.629" fill="none" stroke="#444e59" stroke-linecap="round" stroke-linejoin="round" stroke-miterlimit="10" stroke-width="4"/><line x1="599.641" x2="605.153" y1="387.629" y2="387.629" fill="none" stroke="#444e59" stroke-linecap="round" stroke-linejoin="round" stroke-miterlimit="10" stroke-width="4"/><line x1="623.128" x2="631.638" y1="375.204" y2="375.204" fill="none" stroke="#444e59" stroke-linecap="round" stroke-linejoin="round" stroke-miterlimit="10" stroke-width="4"/><line x1="612.807" x2="615.924" y1="375.204" y2="375.204" fill="none" stroke="#444e59" stroke-linecap="round" stroke-linejoin="round" stroke-miterlimit="10" stroke-width="4"/></g><path fill="#2fa9ed" d="M627.219,457.48h-78.184c-4.76,0-8.62-3.859-8.62-8.62v-37.84
		c0-4.76,3.859-8.62,8.62-8.62h78.184c4.76,0,8.62,3.859,8.62,8.62v37.84C635.839,453.621,631.979,457.48,627.219,457.48z"/><path fill="none" stroke="#444e59" stroke-linecap="round" stroke-linejoin="round" stroke-miterlimit="10" stroke-width="3" d="
		M627.219,457.48h-78.184c-4.76,0-8.62-3.859-8.62-8.62v-37.84c0-4.76,3.859-8.62,8.62-8.62h78.184c4.76,0,8.62,3.859,8.62,8.62
		v37.84C635.839,453.621,631.979,457.48,627.219,457.48z"/><line x1="588.127" x2="621.914" y1="417.2" y2="417.2" fill="none" stroke="#fff" stroke-linecap="round" stroke-linejoin="round" stroke-miterlimit="10" stroke-width="3" opacity=".56"/><line x1="588.127" x2="610.483" y1="428.079" y2="428.079" fill="none" stroke="#fff" stroke-linecap="round" stroke-linejoin="round" stroke-miterlimit="10" stroke-width="3" opacity=".56"/><g opacity=".56"><path fill="#fff" d="M605.111,444.4h-13.65c-1.841,0-3.334-1.493-3.334-3.334l0,0
			c0-1.841,1.493-3.334,3.334-3.334h13.65c1.841,0,3.334,1.493,3.334,3.334l0,0C608.444,442.907,606.952,444.4,605.111,444.4z"/><path fill="none" stroke="#fff" stroke-linecap="round" stroke-linejoin="round" stroke-miterlimit="10" stroke-width="3" d="
			M605.111,444.4h-13.65c-1.841,0-3.334-1.493-3.334-3.334l0,0c0-1.841,1.493-3.334,3.334-3.334h13.65
			c1.841,0,3.334,1.493,3.334,3.334l0,0C608.444,442.907,606.952,444.4,605.111,444.4z"/></g><g><path fill="none" stroke="#fff" stroke-linecap="round" stroke-linejoin="round" stroke-miterlimit="10" stroke-width="3" d="
			M574.007,444.891H556.1c-2.56,0-4.636-2.075-4.636-4.636v-20.914c0-2.56,2.075-4.636,4.636-4.636h17.907
			c2.56,0,4.636,2.075,4.636,4.636v20.914C578.643,442.816,576.567,444.891,574.007,444.891z"/><circle cx="565.054" cy="426.382" r="4.79" fill="none" stroke="#fff" stroke-linecap="round" stroke-linejoin="round" stroke-miterlimit="10" stroke-width="3"/><path fill="none" stroke="#fff" stroke-linecap="round" stroke-linejoin="round" stroke-miterlimit="10" stroke-width="3" d="
			M555.975,444.4c0-5.014,4.065-9.079,9.079-9.079s9.079,4.065,9.079,9.079"/></g></svg>