<svg id="visual" viewBox="0 0 960 540" width="960" height="540" xmlns="http://www.w3.org/2000/svg" xmlns:xlink="http://www.w3.org/1999/xlink" version="1.1"><rect x="0" y="0" width="960" height="540" fill="#f2d4ad"></rect><defs><linearGradient id="grad1_0" x1="43.8%" y1="100%" x2="100%" y2="0%"><stop offset="14.444444444444446%" stop-color="#570075" stop-opacity="1"></stop><stop offset="85.55555555555554%" stop-color="#570075" stop-opacity="1"></stop></linearGradient></defs><defs><linearGradient id="grad1_1" x1="43.8%" y1="100%" x2="100%" y2="0%"><stop offset="14.444444444444446%" stop-color="#570075" stop-opacity="1"></stop><stop offset="85.55555555555554%" stop-color="#850d6f" stop-opacity="1"></stop></linearGradient></defs><defs><linearGradient id="grad1_2" x1="43.8%" y1="100%" x2="100%" y2="0%"><stop offset="14.444444444444446%" stop-color="#a72e6a" stop-opacity="1"></stop><stop offset="85.55555555555554%" stop-color="#850d6f" stop-opacity="1"></stop></linearGradient></defs><defs><linearGradient id="grad1_3" x1="43.8%" y1="100%" x2="100%" y2="0%"><stop offset="14.444444444444446%" stop-color="#a72e6a" stop-opacity="1"></stop><stop offset="85.55555555555554%" stop-color="#c04f69" stop-opacity="1"></stop></linearGradient></defs><defs><linearGradient id="grad1_4" x1="43.8%" y1="100%" x2="100%" y2="0%"><stop offset="14.444444444444446%" stop-color="#d1716d" stop-opacity="1"></stop><stop offset="85.55555555555554%" stop-color="#c04f69" stop-opacity="1"></stop></linearGradient></defs><defs><linearGradient id="grad1_5" x1="43.8%" y1="100%" x2="100%" y2="0%"><stop offset="14.444444444444446%" stop-color="#d1716d" stop-opacity="1"></stop><stop offset="85.55555555555554%" stop-color="#de9379" stop-opacity="1"></stop></linearGradient></defs><defs><linearGradient id="grad1_6" x1="43.8%" y1="100%" x2="100%" y2="0%"><stop offset="14.444444444444446%" stop-color="#e8b48f" stop-opacity="1"></stop><stop offset="85.55555555555554%" stop-color="#de9379" stop-opacity="1"></stop></linearGradient></defs><defs><linearGradient id="grad1_7" x1="43.8%" y1="100%" x2="100%" y2="0%"><stop offset="14.444444444444446%" stop-color="#e8b48f" stop-opacity="1"></stop><stop offset="85.55555555555554%" stop-color="#f2d4ad" stop-opacity="1"></stop></linearGradient></defs><defs><linearGradient id="grad2_0" x1="0%" y1="100%" x2="56.3%" y2="0%"><stop offset="14.444444444444446%" stop-color="#570075" stop-opacity="1"></stop><stop offset="85.55555555555554%" stop-color="#570075" stop-opacity="1"></stop></linearGradient></defs><defs><linearGradient id="grad2_1" x1="0%" y1="100%" x2="56.3%" y2="0%"><stop offset="14.444444444444446%" stop-color="#850d6f" stop-opacity="1"></stop><stop offset="85.55555555555554%" stop-color="#570075" stop-opacity="1"></stop></linearGradient></defs><defs><linearGradient id="grad2_2" x1="0%" y1="100%" x2="56.3%" y2="0%"><stop offset="14.444444444444446%" stop-color="#850d6f" stop-opacity="1"></stop><stop offset="85.55555555555554%" stop-color="#a72e6a" stop-opacity="1"></stop></linearGradient></defs><defs><linearGradient id="grad2_3" x1="0%" y1="100%" x2="56.3%" y2="0%"><stop offset="14.444444444444446%" stop-color="#c04f69" stop-opacity="1"></stop><stop offset="85.55555555555554%" stop-color="#a72e6a" stop-opacity="1"></stop></linearGradient></defs><defs><linearGradient id="grad2_4" x1="0%" y1="100%" x2="56.3%" y2="0%"><stop offset="14.444444444444446%" stop-color="#c04f69" stop-opacity="1"></stop><stop offset="85.55555555555554%" stop-color="#d1716d" stop-opacity="1"></stop></linearGradient></defs><defs><linearGradient id="grad2_5" x1="0%" y1="100%" x2="56.3%" y2="0%"><stop offset="14.444444444444446%" stop-color="#de9379" stop-opacity="1"></stop><stop offset="85.55555555555554%" stop-color="#d1716d" stop-opacity="1"></stop></linearGradient></defs><defs><linearGradient id="grad2_6" x1="0%" y1="100%" x2="56.3%" y2="0%"><stop offset="14.444444444444446%" stop-color="#de9379" stop-opacity="1"></stop><stop offset="85.55555555555554%" stop-color="#e8b48f" stop-opacity="1"></stop></linearGradient></defs><defs><linearGradient id="grad2_7" x1="0%" y1="100%" x2="56.3%" y2="0%"><stop offset="14.444444444444446%" stop-color="#f2d4ad" stop-opacity="1"></stop><stop offset="85.55555555555554%" stop-color="#e8b48f" stop-opacity="1"></stop></linearGradient></defs><g transform="translate(960, 540)"><path d="M-432 0C-420.6 -31 -409.1 -62.1 -395.8 -90.3C-382.5 -118.6 -367.3 -144.1 -353.2 -170.1C-339.1 -196 -326 -222.5 -311.2 -248.1C-296.3 -273.8 -279.7 -298.8 -260 -326C-240.3 -353.3 -217.6 -382.8 -187.4 -389.2C-157.3 -395.6 -119.7 -378.9 -87.2 -382.2C-54.8 -385.4 -27.4 -408.7 0 -432L0 0Z" fill="#edc49d"></path><path d="M-378 0C-368 -27.2 -358 -54.3 -346.3 -79.1C-334.7 -103.8 -321.4 -126.1 -309 -148.8C-296.7 -171.5 -285.3 -194.7 -272.3 -217.1C-259.3 -239.6 -244.7 -261.4 -227.5 -285.3C-210.3 -309.1 -190.4 -335 -164 -340.6C-137.6 -346.2 -104.7 -331.5 -76.3 -334.4C-47.9 -337.3 -24 -357.6 0 -378L0 0Z" fill="#e4a383"></path><path d="M-324 0C-315.4 -23.3 -306.9 -46.6 -296.9 -67.8C-286.9 -89 -275.5 -108.1 -264.9 -127.6C-254.3 -147 -244.5 -166.8 -233.4 -186.1C-222.2 -205.4 -209.8 -224.1 -195 -244.5C-180.2 -265 -163.2 -287.1 -140.6 -291.9C-118 -296.7 -89.8 -284.2 -65.4 -286.6C-41.1 -289.1 -20.5 -306.5 0 -324L0 0Z" fill="#d88272"></path><path d="M-270 0C-262.9 -19.4 -255.7 -38.8 -247.4 -56.5C-239.1 -74.1 -229.6 -90.1 -220.7 -106.3C-211.9 -122.5 -203.8 -139 -194.5 -155.1C-185.2 -171.1 -174.8 -186.7 -162.5 -203.8C-150.2 -220.8 -136 -239.3 -117.1 -243.3C-98.3 -247.3 -74.8 -236.8 -54.5 -238.9C-34.2 -240.9 -17.1 -255.5 0 -270L0 0Z" fill="#c9606a"></path><path d="M-216 0C-210.3 -15.5 -204.6 -31 -197.9 -45.2C-191.3 -59.3 -183.7 -72.1 -176.6 -85C-169.5 -98 -163 -111.2 -155.6 -124.1C-148.2 -136.9 -139.8 -149.4 -130 -163C-120.2 -176.6 -108.8 -191.4 -93.7 -194.6C-78.6 -197.8 -59.9 -189.4 -43.6 -191.1C-27.4 -192.7 -13.7 -204.4 0 -216L0 0Z" fill="#b43e69"></path><path d="M-162 0C-157.7 -11.6 -153.4 -23.3 -148.4 -33.9C-143.4 -44.5 -137.7 -54 -132.4 -63.8C-127.1 -73.5 -122.3 -83.4 -116.7 -93.1C-111.1 -102.7 -104.9 -112 -97.5 -122.3C-90.1 -132.5 -81.6 -143.6 -70.3 -146C-59 -148.4 -44.9 -142.1 -32.7 -143.3C-20.5 -144.5 -10.3 -153.3 0 -162L0 0Z" fill="#981d6c"></path><path d="M-108 0C-105.1 -7.8 -102.3 -15.5 -99 -22.6C-95.6 -29.7 -91.8 -36 -88.3 -42.5C-84.8 -49 -81.5 -55.6 -77.8 -62C-74.1 -68.5 -69.9 -74.7 -65 -81.5C-60.1 -88.3 -54.4 -95.7 -46.9 -97.3C-39.3 -98.9 -29.9 -94.7 -21.8 -95.5C-13.7 -96.4 -6.8 -102.2 0 -108L0 0Z" fill="#700172"></path><path d="M-54 0C-52.6 -3.9 -51.1 -7.8 -49.5 -11.3C-47.8 -14.8 -45.9 -18 -44.1 -21.3C-42.4 -24.5 -40.8 -27.8 -38.9 -31C-37 -34.2 -35 -37.3 -32.5 -40.8C-30 -44.2 -27.2 -47.9 -23.4 -48.7C-19.7 -49.5 -15 -47.4 -10.9 -47.8C-6.8 -48.2 -3.4 -51.1 0 -54L0 0Z" fill="#570075"></path></g><g transform="translate(0, 0)"><path d="M432 0C416 30.3 399.9 60.6 387 88.3C374.2 116.1 364.4 141.2 359.5 173.1C354.5 205.1 354.4 243.8 337.8 269.3C321.1 294.8 287.9 307.1 261.2 327.6C234.6 348.1 214.4 376.9 186.1 386.5C157.9 396.1 121.6 386.6 89.2 390.9C56.9 395.3 28.4 413.7 0 432L0 0Z" fill="#edc49d"></path><path d="M378 0C364 26.5 349.9 53 338.7 77.3C327.4 101.5 318.9 123.5 314.6 151.5C310.2 179.4 310.1 213.4 295.5 235.7C281 258 251.9 268.7 228.6 286.6C205.2 304.6 187.6 329.8 162.9 338.2C138.2 346.6 106.4 338.2 78.1 342.1C49.8 345.9 24.9 362 0 378L0 0Z" fill="#e4a383"></path><path d="M324 0C312 22.7 299.9 45.5 290.3 66.3C280.6 87 273.3 105.9 269.6 129.8C265.9 153.8 265.8 182.9 253.3 202C240.8 221.1 215.9 230.3 195.9 245.7C175.9 261.1 160.8 282.7 139.6 289.9C118.4 297.1 91.2 289.9 66.9 293.2C42.6 296.5 21.3 310.2 0 324L0 0Z" fill="#d88272"></path><path d="M270 0C260 18.9 250 37.9 241.9 55.2C233.9 72.5 227.8 88.2 224.7 108.2C221.6 128.2 221.5 152.4 211.1 168.3C200.7 184.3 180 191.9 163.3 204.7C146.6 217.6 134 235.6 116.3 241.6C98.7 247.6 76 241.6 55.8 244.3C35.5 247.1 17.8 258.5 0 270L0 0Z" fill="#c9606a"></path><path d="M216 0C208 15.2 200 30.3 193.5 44.2C187.1 58 182.2 70.6 179.7 86.6C177.3 102.5 177.2 121.9 168.9 134.7C160.5 147.4 144 153.5 130.6 163.8C117.3 174.1 107.2 188.4 93.1 193.3C78.9 198.1 60.8 193.3 44.6 195.5C28.4 197.7 14.2 206.8 0 216L0 0Z" fill="#b43e69"></path><path d="M162 0C156 11.4 150 22.7 145.1 33.1C140.3 43.5 136.7 52.9 134.8 64.9C133 76.9 132.9 91.4 126.7 101C120.4 110.6 108 115.2 98 122.8C88 130.5 80.4 141.3 69.8 144.9C59.2 148.5 45.6 145 33.5 146.6C21.3 148.2 10.7 155.1 0 162L0 0Z" fill="#981d6c"></path><path d="M108 0C104 7.6 100 15.2 96.8 22.1C93.5 29 91.1 35.3 89.9 43.3C88.6 51.3 88.6 61 84.4 67.3C80.3 73.7 72 76.8 65.3 81.9C58.6 87 53.6 94.2 46.5 96.6C39.5 99 30.4 96.6 22.3 97.7C14.2 98.8 7.1 103.4 0 108L0 0Z" fill="#700172"></path><path d="M54 0C52 3.8 50 7.6 48.4 11C46.8 14.5 45.6 17.6 44.9 21.6C44.3 25.6 44.3 30.5 42.2 33.7C40.1 36.9 36 38.4 32.7 40.9C29.3 43.5 26.8 47.1 23.3 48.3C19.7 49.5 15.2 48.3 11.2 48.9C7.1 49.4 3.6 51.7 0 54L0 0Z" fill="#570075"></path></g></svg>