<svg id="visual" viewBox="0 0 900 600" width="900" height="600" xmlns="http://www.w3.org/2000/svg" xmlns:xlink="http://www.w3.org/1999/xlink" version="1.1"><rect x="0" y="0" width="900" height="600" fill="#FF9C59"></rect><defs><linearGradient id="grad1_0" x1="33.3%" y1="100%" x2="100%" y2="0%"><stop offset="20%" stop-color="#77008d" stop-opacity="1"></stop><stop offset="80%" stop-color="#77008d" stop-opacity="1"></stop></linearGradient></defs><defs><linearGradient id="grad1_1" x1="33.3%" y1="100%" x2="100%" y2="0%"><stop offset="20%" stop-color="#77008d" stop-opacity="1"></stop><stop offset="80%" stop-color="#b6007c" stop-opacity="1"></stop></linearGradient></defs><defs><linearGradient id="grad1_2" x1="33.3%" y1="100%" x2="100%" y2="0%"><stop offset="20%" stop-color="#de3869" stop-opacity="1"></stop><stop offset="80%" stop-color="#b6007c" stop-opacity="1"></stop></linearGradient></defs><defs><linearGradient id="grad1_3" x1="33.3%" y1="100%" x2="100%" y2="0%"><stop offset="20%" stop-color="#de3869" stop-opacity="1"></stop><stop offset="80%" stop-color="#f66b5b" stop-opacity="1"></stop></linearGradient></defs><defs><linearGradient id="grad1_4" x1="33.3%" y1="100%" x2="100%" y2="0%"><stop offset="20%" stop-color="#ff9c59" stop-opacity="1"></stop><stop offset="80%" stop-color="#f66b5b" stop-opacity="1"></stop></linearGradient></defs><defs><linearGradient id="grad2_0" x1="0%" y1="100%" x2="66.7%" y2="0%"><stop offset="20%" stop-color="#77008d" stop-opacity="1"></stop><stop offset="80%" stop-color="#77008d" stop-opacity="1"></stop></linearGradient></defs><defs><linearGradient id="grad2_1" x1="0%" y1="100%" x2="66.7%" y2="0%"><stop offset="20%" stop-color="#b6007c" stop-opacity="1"></stop><stop offset="80%" stop-color="#77008d" stop-opacity="1"></stop></linearGradient></defs><defs><linearGradient id="grad2_2" x1="0%" y1="100%" x2="66.7%" y2="0%"><stop offset="20%" stop-color="#b6007c" stop-opacity="1"></stop><stop offset="80%" stop-color="#de3869" stop-opacity="1"></stop></linearGradient></defs><defs><linearGradient id="grad2_3" x1="0%" y1="100%" x2="66.7%" y2="0%"><stop offset="20%" stop-color="#f66b5b" stop-opacity="1"></stop><stop offset="80%" stop-color="#de3869" stop-opacity="1"></stop></linearGradient></defs><defs><linearGradient id="grad2_4" x1="0%" y1="100%" x2="66.7%" y2="0%"><stop offset="20%" stop-color="#f66b5b" stop-opacity="1"></stop><stop offset="80%" stop-color="#ff9c59" stop-opacity="1"></stop></linearGradient></defs><g transform="translate(900, 600)"><path d="M-324.5 0C-300.5 -27.8 -276.5 -55.7 -261.5 -85C-246.6 -114.3 -240.7 -145 -220.9 -160.5C-201 -175.9 -167.2 -176.1 -147.5 -203.1C-127.9 -230.1 -122.5 -283.9 -100.3 -308.6C-78.1 -333.3 -39 -328.9 0 -324.5L0 0Z" fill="#fc8458"></path><path d="M-259.6 0C-240.4 -22.3 -221.2 -44.5 -209.2 -68C-197.3 -91.4 -192.6 -116 -176.7 -128.4C-160.8 -140.7 -133.7 -140.9 -118 -162.5C-102.3 -184 -98 -227.1 -80.2 -246.9C-62.4 -266.7 -31.2 -263.1 0 -259.6L0 0Z" fill="#ec5261"></path><path d="M-194.7 0C-180.3 -16.7 -165.9 -33.4 -156.9 -51C-148 -68.6 -144.4 -87 -132.5 -96.3C-120.6 -105.5 -100.3 -105.6 -88.5 -121.8C-76.7 -138 -73.5 -170.3 -60.2 -185.2C-46.8 -200 -23.4 -197.3 0 -194.7L0 0Z" fill="#cd1d72"></path><path d="M-129.8 0C-120.2 -11.1 -110.6 -22.3 -104.6 -34C-98.6 -45.7 -96.3 -58 -88.3 -64.2C-80.4 -70.4 -66.9 -70.4 -59 -81.2C-51.2 -92 -49 -113.6 -40.1 -123.4C-31.2 -133.3 -15.6 -131.6 0 -129.8L0 0Z" fill="#9a0085"></path><path d="M-64.9 0C-60.1 -5.6 -55.3 -11.1 -52.3 -17C-49.3 -22.9 -48.1 -29 -44.2 -32.1C-40.2 -35.2 -33.4 -35.2 -29.5 -40.6C-25.6 -46 -24.5 -56.8 -20.1 -61.7C-15.6 -66.7 -7.8 -65.8 0 -64.9L0 0Z" fill="#77008d"></path></g><g transform="translate(0, 0)"><path d="M324.5 0C317.2 35.6 310 71.3 289.1 93.9C268.2 116.6 233.7 126.2 220.1 159.9C206.4 193.5 213.5 251.2 190.7 262.5C168 273.9 115.3 239 78.5 241.6C41.7 244.2 20.9 284.3 0 324.5L0 0Z" fill="#fc8458"></path><path d="M259.6 0C253.8 28.5 248 57 231.3 75.2C214.6 93.3 187 101 176 127.9C165.1 154.8 170.8 200.9 152.6 210C134.4 219.1 92.2 191.2 62.8 193.3C33.4 195.3 16.7 227.5 0 259.6L0 0Z" fill="#ec5261"></path><path d="M194.7 0C190.3 21.4 186 42.8 173.5 56.4C160.9 70 140.2 75.7 132 95.9C123.8 116.1 128.1 150.7 114.4 157.5C100.8 164.3 69.2 143.4 47.1 144.9C25 146.5 12.5 170.6 0 194.7L0 0Z" fill="#cd1d72"></path><path d="M129.8 0C126.9 14.3 124 28.5 115.6 37.6C107.3 46.6 93.5 50.5 88 64C82.5 77.4 85.4 100.5 76.3 105C67.2 109.6 46.1 95.6 31.4 96.6C16.7 97.7 8.3 113.7 0 129.8L0 0Z" fill="#9a0085"></path><path d="M64.9 0C63.4 7.1 62 14.3 57.8 18.8C53.6 23.3 46.7 25.2 44 32C41.3 38.7 42.7 50.2 38.1 52.5C33.6 54.8 23.1 47.8 15.7 48.3C8.3 48.8 4.2 56.9 0 64.9L0 0Z" fill="#77008d"></path></g></svg>