<svg id="visual" viewBox="0 0 960 540" width="960" height="540" xmlns="http://www.w3.org/2000/svg" xmlns:xlink="http://www.w3.org/1999/xlink" version="1.1"><rect x="0" y="0" width="960" height="540" fill="#fd9956"></rect><defs><linearGradient id="grad1_0" x1="43.8%" y1="100%" x2="100%" y2="0%"><stop offset="14.444444444444446%" stop-color="#006b6b" stop-opacity="1"></stop><stop offset="85.55555555555554%" stop-color="#006b6b" stop-opacity="1"></stop></linearGradient></defs><defs><linearGradient id="grad1_1" x1="43.8%" y1="100%" x2="100%" y2="0%"><stop offset="14.444444444444446%" stop-color="#006b6b" stop-opacity="1"></stop><stop offset="85.55555555555554%" stop-color="#257d63" stop-opacity="1"></stop></linearGradient></defs><defs><linearGradient id="grad1_2" x1="43.8%" y1="100%" x2="100%" y2="0%"><stop offset="14.444444444444446%" stop-color="#548c53" stop-opacity="1"></stop><stop offset="85.55555555555554%" stop-color="#257d63" stop-opacity="1"></stop></linearGradient></defs><defs><linearGradient id="grad1_3" x1="43.8%" y1="100%" x2="100%" y2="0%"><stop offset="14.444444444444446%" stop-color="#548c53" stop-opacity="1"></stop><stop offset="85.55555555555554%" stop-color="#889741" stop-opacity="1"></stop></linearGradient></defs><defs><linearGradient id="grad1_4" x1="43.8%" y1="100%" x2="100%" y2="0%"><stop offset="14.444444444444446%" stop-color="#c29c3e" stop-opacity="1"></stop><stop offset="85.55555555555554%" stop-color="#889741" stop-opacity="1"></stop></linearGradient></defs><defs><linearGradient id="grad1_5" x1="43.8%" y1="100%" x2="100%" y2="0%"><stop offset="14.444444444444446%" stop-color="#c29c3e" stop-opacity="1"></stop><stop offset="85.55555555555554%" stop-color="#fd9956" stop-opacity="1"></stop></linearGradient></defs><defs><linearGradient id="grad2_0" x1="0%" y1="100%" x2="56.3%" y2="0%"><stop offset="14.444444444444446%" stop-color="#006b6b" stop-opacity="1"></stop><stop offset="85.55555555555554%" stop-color="#006b6b" stop-opacity="1"></stop></linearGradient></defs><defs><linearGradient id="grad2_1" x1="0%" y1="100%" x2="56.3%" y2="0%"><stop offset="14.444444444444446%" stop-color="#257d63" stop-opacity="1"></stop><stop offset="85.55555555555554%" stop-color="#006b6b" stop-opacity="1"></stop></linearGradient></defs><defs><linearGradient id="grad2_2" x1="0%" y1="100%" x2="56.3%" y2="0%"><stop offset="14.444444444444446%" stop-color="#257d63" stop-opacity="1"></stop><stop offset="85.55555555555554%" stop-color="#548c53" stop-opacity="1"></stop></linearGradient></defs><defs><linearGradient id="grad2_3" x1="0%" y1="100%" x2="56.3%" y2="0%"><stop offset="14.444444444444446%" stop-color="#889741" stop-opacity="1"></stop><stop offset="85.55555555555554%" stop-color="#548c53" stop-opacity="1"></stop></linearGradient></defs><defs><linearGradient id="grad2_4" x1="0%" y1="100%" x2="56.3%" y2="0%"><stop offset="14.444444444444446%" stop-color="#889741" stop-opacity="1"></stop><stop offset="85.55555555555554%" stop-color="#c29c3e" stop-opacity="1"></stop></linearGradient></defs><defs><linearGradient id="grad2_5" x1="0%" y1="100%" x2="56.3%" y2="0%"><stop offset="14.444444444444446%" stop-color="#fd9956" stop-opacity="1"></stop><stop offset="85.55555555555554%" stop-color="#c29c3e" stop-opacity="1"></stop></linearGradient></defs><g transform="translate(960, 540)"><path d="M-324 0C-326.3 -38.1 -328.7 -76.2 -305.3 -99.2C-281.9 -122.2 -232.8 -130.1 -209.5 -152.2C-186.2 -174.4 -188.7 -210.8 -175.2 -241.1C-161.6 -271.3 -132 -295.4 -100.1 -308.1C-68.3 -320.9 -34.1 -322.5 0 -324L0 0Z" fill="#e09b46"></path><path d="M-270 0C-271.9 -31.8 -273.9 -63.5 -254.4 -82.7C-234.9 -101.8 -194 -108.4 -174.6 -126.9C-155.2 -145.3 -157.3 -175.7 -146 -200.9C-134.7 -226.1 -110 -246.1 -83.4 -256.8C-56.9 -267.4 -28.4 -268.7 0 -270L0 0Z" fill="#a49a3d"></path><path d="M-216 0C-217.6 -25.4 -219.1 -50.8 -203.5 -66.1C-187.9 -81.5 -155.2 -86.7 -139.7 -101.5C-124.2 -116.3 -125.8 -140.6 -116.8 -160.7C-107.7 -180.9 -88 -196.9 -66.7 -205.4C-45.5 -214 -22.8 -215 0 -216L0 0Z" fill="#6d9249"></path><path d="M-162 0C-163.2 -19.1 -164.3 -38.1 -152.6 -49.6C-141 -61.1 -116.4 -65 -104.8 -76.1C-93.1 -87.2 -94.4 -105.4 -87.6 -120.5C-80.8 -135.7 -66 -147.7 -50.1 -154.1C-34.1 -160.5 -17.1 -161.2 0 -162L0 0Z" fill="#3c855c"></path><path d="M-108 0C-108.8 -12.7 -109.6 -25.4 -101.8 -33.1C-94 -40.7 -77.6 -43.4 -69.8 -50.7C-62.1 -58.1 -62.9 -70.3 -58.4 -80.4C-53.9 -90.4 -44 -98.5 -33.4 -102.7C-22.8 -107 -11.4 -107.5 0 -108L0 0Z" fill="#0d7469"></path><path d="M-54 0C-54.4 -6.4 -54.8 -12.7 -50.9 -16.5C-47 -20.4 -38.8 -21.7 -34.9 -25.4C-31 -29.1 -31.5 -35.1 -29.2 -40.2C-26.9 -45.2 -22 -49.2 -16.7 -51.4C-11.4 -53.5 -5.7 -53.7 0 -54L0 0Z" fill="#006b6b"></path></g><g transform="translate(0, 0)"><path d="M324 0C307.5 28.9 290.9 57.9 279.6 90.9C268.3 123.8 262.2 160.8 234.6 170.5C207 180.1 158 162.3 135.8 186.9C113.6 211.4 118.3 278.2 100.1 308.1C82 338 41 331 0 324L0 0Z" fill="#e09b46"></path><path d="M270 0C256.2 24.1 242.4 48.2 233 75.7C223.6 103.2 218.5 134 195.5 142C172.5 150.1 131.6 135.3 113.1 155.7C94.7 176.2 98.6 231.9 83.4 256.8C68.3 281.7 34.2 275.9 0 270L0 0Z" fill="#a49a3d"></path><path d="M216 0C205 19.3 194 38.6 186.4 60.6C178.9 82.5 174.8 107.2 156.4 113.6C138 120.1 105.3 108.2 90.5 124.6C75.7 140.9 78.8 185.5 66.7 205.4C54.6 225.4 27.3 220.7 0 216L0 0Z" fill="#6d9249"></path><path d="M162 0C153.7 14.5 145.5 28.9 139.8 45.4C134.1 61.9 131.1 80.4 117.3 85.2C103.5 90 79 81.2 67.9 93.4C56.8 105.7 59.1 139.1 50.1 154.1C41 169 20.5 165.5 0 162L0 0Z" fill="#3c855c"></path><path d="M108 0C102.5 9.6 97 19.3 93.2 30.3C89.4 41.3 87.4 53.6 78.2 56.8C69 60 52.7 54.1 45.3 62.3C37.9 70.5 39.4 92.7 33.4 102.7C27.3 112.7 13.7 110.3 0 108L0 0Z" fill="#0d7469"></path><path d="M54 0C51.2 4.8 48.5 9.6 46.6 15.1C44.7 20.6 43.7 26.8 39.1 28.4C34.5 30 26.3 27.1 22.6 31.1C18.9 35.2 19.7 46.4 16.7 51.4C13.7 56.3 6.8 55.2 0 54L0 0Z" fill="#006b6b"></path></g></svg>