<svg id="visual" viewBox="0 0 960 540" width="960" height="540" xmlns="http://www.w3.org/2000/svg" xmlns:xlink="http://www.w3.org/1999/xlink" version="1.1"><path d="M0 427L13.3 420.8C26.7 414.7 53.3 402.3 80 393.8C106.7 385.3 133.3 380.7 160 379.2C186.7 377.7 213.3 379.3 240 379.2C266.7 379 293.3 377 320 383C346.7 389 373.3 403 400 391.3C426.7 379.7 453.3 342.3 480 339.8C506.7 337.3 533.3 369.7 560 366.5C586.7 363.3 613.3 324.7 640 329.2C666.7 333.7 693.3 381.3 720 390.8C746.7 400.3 773.3 371.7 800 370C826.7 368.3 853.3 393.7 880 390.3C906.7 387 933.3 355 946.7 339L960 323L960 0L946.7 0C933.3 0 906.7 0 880 0C853.3 0 826.7 0 800 0C773.3 0 746.7 0 720 0C693.3 0 666.7 0 640 0C613.3 0 586.7 0 560 0C533.3 0 506.7 0 480 0C453.3 0 426.7 0 400 0C373.3 0 346.7 0 320 0C293.3 0 266.7 0 240 0C213.3 0 186.7 0 160 0C133.3 0 106.7 0 80 0C53.3 0 26.7 0 13.3 0L0 0Z" fill="#320e3e"></path><path d="M0 343L13.3 329.3C26.7 315.7 53.3 288.3 80 278.8C106.7 269.3 133.3 277.7 160 290C186.7 302.3 213.3 318.7 240 323.5C266.7 328.3 293.3 321.7 320 304.8C346.7 288 373.3 261 400 259C426.7 257 453.3 280 480 286.5C506.7 293 533.3 283 560 288.8C586.7 294.7 613.3 316.3 640 327C666.7 337.7 693.3 337.3 720 342C746.7 346.7 773.3 356.3 800 336.7C826.7 317 853.3 268 880 267.7C906.7 267.3 933.3 315.7 946.7 339.8L960 364L960 0L946.7 0C933.3 0 906.7 0 880 0C853.3 0 826.7 0 800 0C773.3 0 746.7 0 720 0C693.3 0 666.7 0 640 0C613.3 0 586.7 0 560 0C533.3 0 506.7 0 480 0C453.3 0 426.7 0 400 0C373.3 0 346.7 0 320 0C293.3 0 266.7 0 240 0C213.3 0 186.7 0 160 0C133.3 0 106.7 0 80 0C53.3 0 26.7 0 13.3 0L0 0Z" fill="#cd5654"></path><path d="M0 280L13.3 267.8C26.7 255.7 53.3 231.3 80 216.5C106.7 201.7 133.3 196.3 160 198C186.7 199.7 213.3 208.3 240 224.8C266.7 241.3 293.3 265.7 320 277.2C346.7 288.7 373.3 287.3 400 278C426.7 268.7 453.3 251.3 480 231.3C506.7 211.3 533.3 188.7 560 193C586.7 197.3 613.3 228.7 640 237C666.7 245.3 693.3 230.7 720 232.7C746.7 234.7 773.3 253.3 800 250.7C826.7 248 853.3 224 880 218.2C906.7 212.3 933.3 224.7 946.7 230.8L960 237L960 0L946.7 0C933.3 0 906.7 0 880 0C853.3 0 826.7 0 800 0C773.3 0 746.7 0 720 0C693.3 0 666.7 0 640 0C613.3 0 586.7 0 560 0C533.3 0 506.7 0 480 0C453.3 0 426.7 0 400 0C373.3 0 346.7 0 320 0C293.3 0 266.7 0 240 0C213.3 0 186.7 0 160 0C133.3 0 106.7 0 80 0C53.3 0 26.7 0 13.3 0L0 0Z" fill="#ffab4b"></path><path d="M0 124L13.3 125.5C26.7 127 53.3 130 80 137.8C106.7 145.7 133.3 158.3 160 165.5C186.7 172.7 213.3 174.3 240 164.7C266.7 155 293.3 134 320 127.7C346.7 121.3 373.3 129.7 400 130.8C426.7 132 453.3 126 480 129.8C506.7 133.7 533.3 147.3 560 151.8C586.7 156.3 613.3 151.7 640 155.7C666.7 159.7 693.3 172.3 720 168.7C746.7 165 773.3 145 800 138.7C826.7 132.3 853.3 139.7 880 139.2C906.7 138.7 933.3 130.3 946.7 126.2L960 122L960 0L946.7 0C933.3 0 906.7 0 880 0C853.3 0 826.7 0 800 0C773.3 0 746.7 0 720 0C693.3 0 666.7 0 640 0C613.3 0 586.7 0 560 0C533.3 0 506.7 0 480 0C453.3 0 426.7 0 400 0C373.3 0 346.7 0 320 0C293.3 0 266.7 0 240 0C213.3 0 186.7 0 160 0C133.3 0 106.7 0 80 0C53.3 0 26.7 0 13.3 0L0 0Z" fill="#cd5654"></path><path d="M0 66L13.3 63.3C26.7 60.7 53.3 55.3 80 59.8C106.7 64.3 133.3 78.7 160 86.7C186.7 94.7 213.3 96.3 240 98.7C266.7 101 293.3 104 320 106.8C346.7 109.7 373.3 112.3 400 104.3C426.7 96.3 453.3 77.7 480 74.7C506.7 71.7 533.3 84.3 560 95.8C586.7 107.3 613.3 117.7 640 120.8C666.7 124 693.3 120 720 120.2C746.7 120.3 773.3 124.7 800 126.3C826.7 128 853.3 127 880 121C906.7 115 933.3 104 946.7 98.5L960 93L960 0L946.7 0C933.3 0 906.7 0 880 0C853.3 0 826.7 0 800 0C773.3 0 746.7 0 720 0C693.3 0 666.7 0 640 0C613.3 0 586.7 0 560 0C533.3 0 506.7 0 480 0C453.3 0 426.7 0 400 0C373.3 0 346.7 0 320 0C293.3 0 266.7 0 240 0C213.3 0 186.7 0 160 0C133.3 0 106.7 0 80 0C53.3 0 26.7 0 13.3 0L0 0Z" fill="#320e3e"></path></svg>